<svg width="162" height="30" viewBox="0 0 162 30" fill="none" xmlns="http://www.w3.org/2000/svg">
<g clip-path="url(#clip0_368_8167)">
<path d="M9.80072 18.101H6.57015V29.4612H0.266602V0.869141H9.80072C16.2225 0.869141 20.3198 3.91594 20.3198 9.29136C20.3198 14.6929 16.3013 18.101 9.80072 18.101ZM9.80072 6.15316H6.57015V12.8126H9.80072C12.6461 12.8126 14.0162 11.7244 14.0162 9.40452C14.0162 7.05414 12.5979 6.15316 9.80072 6.15316Z" fill="#1D1D1B"/>
<path d="M30.563 29.4612V0.869141H47.3068V6.15751H36.8665V12.8518H46.5561V18.1401H36.8665V24.1728H47.8978V29.4612H30.563Z" fill="#1D1D1B"/>
<path d="M73.6967 29.4612L65.6991 15.9464V29.4612H59.3955V0.869141H69.7176C75.7519 0.869141 79.6063 4.46871 79.6063 9.40452C79.6063 13.6744 76.9798 16.4949 73.1911 17.5134L80.8341 29.4612H73.6967ZM69.7241 6.15316H65.7056V13.0563H69.7241C71.9304 13.0563 73.3093 11.6461 73.3093 9.41323C73.3093 7.39799 71.7268 6.15316 69.7241 6.15316Z" fill="#1D1D1B"/>
<path d="M103.645 29.932C95.0955 29.932 88.9102 23.8602 88.9102 15.0462C88.9102 6.19313 95.5289 0.395508 103.527 0.395508C108.607 0.395508 112.113 2.35416 114.634 5.05711L110.734 8.8569C108.961 6.93742 106.442 5.87539 103.527 5.87539C98.7201 5.87539 95.1459 10.1104 95.1459 15.0462C95.1459 20.0996 98.731 24.4478 103.656 24.4478C107.123 24.4478 109.644 23.0767 110.745 20.3346H103.408V15.0462H117.707C117.707 24.487 111.483 29.932 103.645 29.932Z" fill="#1D1D1B"/>
<path d="M141.7 29.932C132.799 29.932 126.929 23.1856 126.929 15.0462C126.929 6.8199 132.878 0.395508 141.779 0.395508C150.753 0.395508 156.553 6.54568 156.553 15.0462C156.553 23.3118 150.604 29.932 141.7 29.932ZM141.779 5.87539C136.855 5.87539 133.429 10.2628 133.429 15.0419C133.429 20.2911 137.211 24.4434 141.7 24.4434C146.901 24.4434 150.053 19.8602 150.053 15.0419C150.053 10.0321 146.783 5.87539 141.779 5.87539Z" fill="#1D1D1B"/>
<path d="M159.14 29.5358C158.683 29.5358 158.236 29.401 157.856 29.1485C157.476 28.8959 157.18 28.537 157.005 28.1171C156.83 27.6971 156.784 27.2351 156.874 26.7893C156.963 26.3435 157.183 25.934 157.506 25.6126C157.829 25.2912 158.241 25.0723 158.689 24.9836C159.138 24.8949 159.603 24.9404 160.025 25.1144C160.447 25.2883 160.808 25.5829 161.062 25.9608C161.316 26.3388 161.452 26.7831 161.452 27.2376C161.451 27.8468 161.207 28.4306 160.773 28.8614C160.34 29.2921 159.753 29.5346 159.14 29.5358ZM159.14 25.3181C158.758 25.3186 158.384 25.4317 158.066 25.6433C157.748 25.8548 157.501 26.1553 157.355 26.5067C157.208 26.8582 157.17 27.2448 157.245 27.6178C157.32 27.9908 157.504 28.3334 157.774 28.6023C158.045 28.8712 158.389 29.0544 158.765 29.1287C159.14 29.203 159.529 29.1651 159.882 29.0198C160.235 28.8744 160.538 28.6282 160.75 28.3121C160.963 27.9961 161.077 27.6245 161.077 27.2441C161.078 26.9911 161.028 26.7403 160.931 26.5064C160.834 26.2725 160.691 26.0599 160.511 25.881C160.331 25.702 160.118 25.5602 159.882 25.4636C159.647 25.367 159.395 25.3176 159.14 25.3181ZM159.613 28.5173L158.882 27.3595V28.5086H158.269V25.8491H159.324C159.433 25.843 159.542 25.8586 159.644 25.895C159.747 25.9315 159.841 25.988 159.921 26.0613C160.001 26.1346 160.065 26.2231 160.11 26.3216C160.155 26.4201 160.179 26.5266 160.182 26.6348C160.197 26.8166 160.142 26.9971 160.028 27.1403C159.914 27.2835 159.751 27.3789 159.569 27.4074L160.318 28.5173H159.613ZM159.215 26.354H158.882V27.0178H159.202C159.25 27.0205 159.299 27.0128 159.344 26.9952C159.389 26.9776 159.43 26.9505 159.463 26.9158C159.497 26.8811 159.523 26.8396 159.539 26.7941C159.555 26.7486 159.561 26.7002 159.556 26.6522C159.555 26.6097 159.545 26.5679 159.527 26.5294C159.509 26.4909 159.483 26.4566 159.451 26.4286C159.419 26.4006 159.382 26.3795 159.341 26.3666C159.3 26.3538 159.257 26.3495 159.215 26.354Z" fill="#1D1D1B"/>
</g>
<defs>
<clipPath id="clip0_368_8167">
<rect width="162" height="30" fill="white"/>
</clipPath>
</defs>
</svg>
