<svg xmlns="http://www.w3.org/2000/svg" viewBox="0 0 100 100">
  <rect x="5" y="5" width="90" height="90" rx="4" fill="none" stroke="#3D4A52" stroke-width="2.5"/>
  <!-- Silhouettes (usage commercial intense) -->
  <circle cx="22" cy="22" r="4.5" fill="#3D4A52"/>
  <path d="M22 26 L22 38 M16 31 L28 31 M22 38 L17 48 M22 38 L27 48" stroke="#3D4A52" stroke-width="1.8" stroke-linecap="round" fill="none"/>
  <circle cx="38" cy="22" r="4.5" fill="#3D4A52"/>
  <path d="M38 26 L38 38 M32 31 L44 31 M38 38 L33 48 M38 38 L43 48" stroke="#3D4A52" stroke-width="1.8" stroke-linecap="round" fill="none"/>
  <circle cx="54" cy="22" r="4.5" fill="#3D4A52"/>
  <path d="M54 26 L54 38 M48 31 L60 31 M54 38 L49 48 M54 38 L59 48" stroke="#3D4A52" stroke-width="1.8" stroke-linecap="round" fill="none"/>
  <!-- Immeuble commercial -->
  <rect x="68" y="22" width="18" height="30" rx="1" fill="none" stroke="#3D4A52" stroke-width="1.5"/>
  <rect x="71" y="26" width="4" height="4" fill="#3D4A52"/>
  <rect x="79" y="26" width="4" height="4" fill="#3D4A52"/>
  <rect x="71" y="34" width="4" height="4" fill="#3D4A52"/>
  <rect x="79" y="34" width="4" height="4" fill="#3D4A52"/>
  <rect x="74" y="44" width="6" height="8" fill="#3D4A52"/>
  <!-- AC5 -->
  <text x="50" y="82" text-anchor="middle" font-family="Arial,sans-serif" font-size="20" font-weight="900" fill="#3D4A52">AC5</text>
</svg>
