<svg xmlns="http://www.w3.org/2000/svg" viewBox="0 0 120 100">
  <rect x="5" y="5" width="110" height="90" rx="4" fill="none" stroke="#3D4A52" stroke-width="2.5"/>
  <!-- Texte haut -->
  <text x="60" y="18" text-anchor="middle" font-family="Arial,sans-serif" font-size="6.5" font-weight="600" fill="#3D4A52">EMISSIONS DANS L'AIR INTERIEUR</text>
  <!-- Maison -->
  <g transform="translate(15,22)">
    <polygon points="22,0 0,18 5,18 5,35 39,35 39,18 44,18" fill="none" stroke="#3D4A52" stroke-width="2" stroke-linejoin="round"/>
    <rect x="14" y="20" width="16" height="15" fill="none" stroke="#3D4A52" stroke-width="1.5"/>
    <line x1="22" y1="20" x2="22" y2="35" stroke="#3D4A52" stroke-width="1"/>
    <line x1="14" y1="27" x2="30" y2="27" stroke="#3D4A52" stroke-width="1"/>
  </g>
  <!-- Badge A+ -->
  <rect x="65" y="25" width="42" height="35" rx="3" fill="#2E7D32"/>
  <text x="86" y="50" text-anchor="middle" font-family="Arial,sans-serif" font-size="26" font-weight="900" fill="#fff">A+</text>
  <!-- Echelle -->
  <g transform="translate(65,62)" font-family="Arial,sans-serif" font-size="5" font-weight="700">
    <rect x="0" y="0" width="10" height="5" fill="#2E7D32"/><text x="12" y="4.5" fill="#3D4A52">A+</text>
    <rect x="0" y="6" width="12" height="5" fill="#4CAF50"/><text x="14" y="10.5" fill="#3D4A52">A</text>
    <rect x="0" y="12" width="14" height="5" fill="#FFC107"/><text x="16" y="16.5" fill="#3D4A52">B</text>
    <rect x="0" y="18" width="16" height="5" fill="#FF9800"/><text x="18" y="22.5" fill="#3D4A52">C</text>
  </g>
</svg>
